# xmcd
#
# Track frame offsets: 
#        150
#        25050
#        50978
#        68895
#        87915
#        102843
#        113812
#        143347
#        156400
#
# Disc length: 2388 seconds
#
# Revision: 0
# Processed by: cddbd v1.5.2PL0 Copyright (c) Steve Scherf et al.
# Submitted via: ExactAudioCopy v0.99pb4
#
DISCID=74095209
DTITLE=Big Boy Little Band - Live from the XM Satellite
DYEAR=2010
DGENRE=Blues
TTITLE0=Shuck and Jive
TTITLE1=Downhome Girl
TTITLE2=Deer Rifle
TTITLE3=The Heat and the Humidity
TTITLE4=Twelve Bar Blues
TTITLE5=Beg for the Money
TTITLE6=Carondolet
TTITLE7=The Legend
TTITLE8=The Idiot Talking
EXTD=Big Boy Little (Bret Littlehales) - vocals and harmonica\nMat Kel
EXTD=ley - guitar, lead vocal on Deer Rifle\nWolf Crescenze - bass\nRo
EXTD=bby Leebrick - drums
EXTT0=Brett Littlehales
EXTT1=Jerry Leiber\n
EXTT2=Matt Kelley
EXTT3=Brett Littlehales
EXTT4=Brett Littlehales
EXTT5=Brett Littlehales
EXTT6=Brett Littlehales
EXTT7=Brett Littlehales
EXTT8=Brett Littlehales
PLAYORDER=
